<svg width="28" height="28" viewBox="0 0 28 28" fill="none" xmlns="http://www.w3.org/2000/svg">
<path d="M5.43227 21.4124C6.82694 20.4453 8.21051 19.7032 9.58297 19.1863C10.9554 18.6694 12.4291 18.4109 14.0038 18.4109C15.5786 18.4109 17.0591 18.6714 18.4452 19.1924C19.8314 19.7134 21.2169 20.4534 22.6018 21.4124C23.569 20.2071 24.2541 19.0054 24.6572 17.8073C25.0604 16.6092 25.262 15.3401 25.262 14.0001C25.262 10.8031 24.1844 8.12694 22.0293 5.97154C19.8742 3.81616 17.1984 2.73847 14.0018 2.73847C10.8052 2.73847 8.12888 3.81616 5.97284 5.97154C3.8168 8.12694 2.73877 10.8031 2.73877 14.0001C2.73877 15.3397 2.94464 16.6079 3.35637 17.8047C3.76813 19.0015 4.4601 20.2041 5.43227 21.4124ZM13.9942 15.0559C12.6926 15.0559 11.5992 14.6109 10.7139 13.721C9.82854 12.8312 9.38587 11.7372 9.38587 10.4392C9.38587 9.14113 9.83061 8.04791 10.7201 7.15951C11.6095 6.27108 12.705 5.82687 14.0066 5.82687C15.3081 5.82687 16.4015 6.27315 17.2869 7.16571C18.1722 8.05824 18.6149 9.15353 18.6149 10.4516C18.6149 11.7496 18.1701 12.8415 17.2807 13.7272C16.3912 14.613 15.2957 15.0559 13.9942 15.0559ZM14.0113 27.5327C12.1552 27.5327 10.4044 27.1779 8.75887 26.4684C7.11334 25.7589 5.6749 24.7885 4.44354 23.5573C3.21221 22.3261 2.24174 20.8901 1.53214 19.2495C0.822562 17.6089 0.467773 15.8559 0.467773 13.9905C0.467773 12.1312 0.823084 10.3827 1.53371 8.74501C2.24433 7.10732 3.2145 5.67362 4.44421 4.44391C5.67392 3.2142 7.10922 2.2427 8.75011 1.52941C10.391 0.816117 12.1442 0.459473 14.0099 0.459473C15.8693 0.459473 17.6178 0.816117 19.2554 1.52941C20.8931 2.2427 22.3268 3.2142 23.5565 4.44391C24.7863 5.67362 25.7578 7.10789 26.471 8.74674C27.1843 10.3856 27.541 12.133 27.541 13.9891C27.541 15.8452 27.1843 17.5963 26.471 19.2425C25.7578 20.8886 24.7863 22.3265 23.5565 23.5562C22.3268 24.786 20.8926 25.7561 19.2537 26.4667C17.6149 27.1774 15.8674 27.5327 14.0113 27.5327ZM14.0004 25.2617C15.2067 25.2617 16.3799 25.0892 17.5199 24.7443C18.66 24.3993 19.7967 23.7904 20.9301 22.9175C19.7914 22.1228 18.6492 21.521 17.5033 21.112C16.3574 20.7031 15.1898 20.4986 14.0004 20.4986C12.811 20.4986 11.6447 20.7031 10.5015 21.112C9.35823 21.521 8.21728 22.1228 7.07864 22.9175C8.21197 23.7904 9.34736 24.3993 10.4848 24.7443C11.6222 25.0892 12.7941 25.2617 14.0004 25.2617ZM14.0004 12.9602C14.7393 12.9602 15.3438 12.7266 15.814 12.2595C16.2841 11.7924 16.5192 11.1876 16.5192 10.4454C16.5192 9.70311 16.2841 9.09706 15.814 8.62724C15.3438 8.15744 14.7393 7.92254 14.0004 7.92254C13.2615 7.92254 12.6569 8.15744 12.1868 8.62724C11.7166 9.09706 11.4815 9.70311 11.4815 10.4454C11.4815 11.1876 11.7166 11.7924 12.1868 12.2595C12.6569 12.7266 13.2615 12.9602 14.0004 12.9602Z" fill="#9DA3AE"/>
</svg>
