
<svg width="26" height="26" viewBox="0 0 26 26" fill="none" xmlns="http://www.w3.org/2000/svg">
<path d="M10.212 25.6668L9.64111 21.6411C9.21776 21.4975 8.76803 21.291 8.29194 21.0215C7.81588 20.7519 7.40149 20.4656 7.04878 20.1625L3.30948 21.824L0.507812 16.9061L3.83855 14.4335C3.79866 14.2113 3.77002 13.9745 3.75265 13.7232C3.73527 13.4719 3.72658 13.2352 3.72658 13.013C3.72658 12.7993 3.73527 12.5675 3.75265 12.3176C3.77002 12.0678 3.79866 11.8175 3.83855 11.5668L0.507812 9.0856L3.30948 4.2019L7.03595 5.84206C7.4143 5.53608 7.83411 5.25047 8.29538 4.98523C8.75662 4.71996 9.20093 4.51867 9.62831 4.38136L10.212 0.333496H15.788L16.359 4.37196C16.8194 4.54118 17.2671 4.7476 17.7021 4.9912C18.1372 5.2348 18.5408 5.51842 18.9128 5.84206L22.6992 4.2019L25.4923 9.0856L22.1102 11.5693C22.1672 11.8178 22.2016 12.0627 22.2132 12.304C22.2249 12.5453 22.2308 12.7773 22.2308 13.0001C22.2308 13.2144 22.2228 13.4399 22.2068 13.6766C22.1909 13.9134 22.1564 14.166 22.1034 14.4343L25.4683 16.9061L22.6667 21.824L18.9128 20.1496C18.526 20.4699 18.1148 20.7621 17.6795 21.0262C17.2442 21.2903 16.804 21.491 16.359 21.6283L15.788 25.6668H10.212ZM12.9795 16.8377C14.0468 16.8377 14.9532 16.4649 15.6987 15.7193C16.4443 14.9738 16.8171 14.0674 16.8171 13.0001C16.8171 11.9329 16.4443 11.0265 15.6987 10.2809C14.9532 9.53535 14.0468 9.16256 12.9795 9.16256C11.9134 9.16256 11.0073 9.53535 10.2612 10.2809C9.51505 11.0265 9.14198 11.9329 9.14198 13.0001C9.14198 14.0674 9.51505 14.9738 10.2612 15.7193C11.0073 16.4649 11.9134 16.8377 12.9795 16.8377ZM12.9795 15.1625C12.3818 15.1625 11.872 14.9516 11.45 14.5296C11.0281 14.1077 10.8171 13.5978 10.8171 13.0001C10.8171 12.4024 11.0281 11.8926 11.45 11.4706C11.872 11.0487 12.3818 10.8377 12.9795 10.8377C13.5829 10.8377 14.0942 11.0487 14.5133 11.4706C14.9324 11.8926 15.1419 12.4024 15.1419 13.0001C15.1419 13.5978 14.9324 14.1077 14.5133 14.5296C14.0942 14.9516 13.5829 15.1625 12.9795 15.1625ZM11.6035 23.9916H14.3727L14.8522 20.3206C15.5508 20.1429 16.1982 19.882 16.7945 19.5382C17.3908 19.1943 17.9624 18.756 18.5094 18.2232L21.9351 19.6924L23.2616 17.3625L20.2428 15.1198C20.3391 14.7414 20.411 14.3805 20.4586 14.0369C20.5062 13.6933 20.5299 13.3477 20.5299 13.0001C20.5299 12.6383 20.5084 12.2899 20.4654 11.9548C20.4224 11.6198 20.3482 11.2702 20.2428 10.9061L23.2872 8.63773L21.9607 6.30783L18.4966 7.7839C18.0357 7.27392 17.4808 6.82406 16.8321 6.43433C16.1834 6.04457 15.5191 5.79301 14.8394 5.67963L14.3966 2.00866H11.6103L11.1693 5.6668C10.4502 5.81835 9.78751 6.06821 9.18125 6.41636C8.57498 6.76452 8.00574 7.21381 7.47355 7.76423L4.03935 6.30783L2.71288 8.63773L5.72738 10.8608C5.6254 11.201 5.54991 11.5488 5.50091 11.9044C5.45189 12.26 5.42738 12.6295 5.42738 13.013C5.42738 13.3748 5.45189 13.7292 5.50091 14.0762C5.54991 14.4232 5.62113 14.7711 5.71458 15.1198L2.71288 17.3625L4.03935 19.6924L7.46071 18.2292C7.98493 18.7637 8.5516 19.2036 9.16071 19.5489C9.76985 19.8941 10.4351 20.1557 11.1564 20.3335L11.6035 23.9916Z" fill="#9DA3AE"/>
</svg>
