<svg width="27" height="30" viewBox="0 0 27 30" fill="none" xmlns="http://www.w3.org/2000/svg">
<path d="M12.9997 29.1754C11.5625 29.1754 10.3473 28.6773 9.35406 27.6812C8.36083 26.6851 7.86422 25.4686 7.86422 24.032C7.86422 22.8001 8.24622 21.726 9.01022 20.8095C9.77424 19.8931 10.7256 19.302 11.8642 19.0363V16.1356H3.80046V11.1037H0.133789V1.49137H9.74606V11.1037H6.07939V13.8646H19.92V10.9559C18.7813 10.6955 17.83 10.1073 17.066 9.19137C16.302 8.27544 15.92 7.19838 15.92 5.96021C15.92 4.52578 16.4181 3.31126 17.4142 2.31664C18.4104 1.32202 19.6268 0.824707 21.0635 0.824707C22.4979 0.824707 23.7124 1.32202 24.7071 2.31664C25.7017 3.31126 26.199 4.52578 26.199 5.96021C26.199 7.19838 25.817 8.27544 25.053 9.19137C24.289 10.1073 23.3376 10.6955 22.199 10.9559V16.1356H14.1352V19.0363C15.2739 19.302 16.2252 19.8928 16.9892 20.8086C17.7532 21.7245 18.1352 22.7979 18.1352 24.029C18.1352 25.4682 17.6386 26.6857 16.6454 27.6816C15.6521 28.6775 14.4369 29.1754 12.9997 29.1754ZM21.054 8.82471C21.8454 8.82471 22.5209 8.54671 23.0805 7.99071C23.6402 7.43471 23.92 6.76104 23.92 5.96971C23.92 5.17835 23.6424 4.50285 23.0873 3.94321C22.5321 3.38354 21.8588 3.10371 21.0675 3.10371C20.2762 3.10371 19.6002 3.38129 19.0398 3.93644C18.4792 4.49162 18.199 5.16487 18.199 5.95621C18.199 6.74756 18.477 7.42349 19.033 7.98397C19.589 8.54446 20.2627 8.82471 21.054 8.82471ZM2.41276 8.82471H7.46712V3.77037H2.41276V8.82471ZM12.993 26.8964C13.7851 26.8964 14.4616 26.6184 15.0227 26.0624C15.5837 25.5064 15.8642 24.8328 15.8642 24.0414C15.8642 23.2501 15.586 22.5746 15.0294 22.0149C14.4729 21.4553 13.7985 21.1754 13.0065 21.1754C12.2144 21.1754 11.5378 21.453 10.9768 22.0082C10.4157 22.5634 10.1352 23.2366 10.1352 24.028C10.1352 24.8193 10.4135 25.4952 10.9701 26.0557C11.5266 26.6162 12.2009 26.8964 12.993 26.8964Z" fill="#2680C2"/>
</svg>
